<?xml version="1.0" encoding="UTF-8" standalone="no"?>
<!DOCTYPE svg PUBLIC "-//W3C//DTD SVG 1.1//EN"
 "http://www.w3.org/Graphics/SVG/1.1/DTD/svg11.dtd">
<!-- Generated by graphviz version 2.49.0 (20210829.0051)
 -->
<!-- Title: pipeline_dag Pages: 1 -->
<svg width="673pt" height="770pt"
 viewBox="0.00 0.00 673.25 770.20" xmlns="http://www.w3.org/2000/svg" xmlns:xlink="http://www.w3.org/1999/xlink">
<g id="graph0" class="graph" transform="scale(1 1) rotate(0) translate(4 766.2)">
<title>pipeline_dag</title>
<polygon fill="white" stroke="transparent" points="-4,4 -4,-766.2 669.25,-766.2 669.25,4 -4,4"/>
<!-- p0 -->
<g id="node1" class="node">
<title>p0</title>
<ellipse fill="black" stroke="black" cx="273.25" cy="-743.6" rx="3.6" ry="3.6"/>
<text text-anchor="middle" x="204.65" y="-751" font-family="Times,serif" font-size="14.00">Channel.fromPath</text>
</g>
<!-- p9 -->
<g id="node2" class="node">
<title>p9</title>
<ellipse fill="none" stroke="black" cx="273.25" cy="-671" rx="51.99" ry="18"/>
<text text-anchor="middle" x="273.25" y="-667.3" font-family="Times,serif" font-size="14.00">indexRef</text>
</g>
<!-- p0&#45;&gt;p9 -->
<g id="edge1" class="edge">
<title>p0&#45;&gt;p9</title>
<path fill="none" stroke="black" d="M273.25,-739.92C273.25,-733.25 273.25,-715.3 273.25,-699.53"/>
<polygon fill="black" stroke="black" points="276.75,-699.13 273.25,-689.13 269.75,-699.13 276.75,-699.13"/>
<text text-anchor="middle" x="296.75" y="-710.8" font-family="Times,serif" font-size="14.00">LT2ref</text>
</g>
<!-- p1 -->
<g id="node3" class="node">
<title>p1</title>
<ellipse fill="black" stroke="black" cx="388.25" cy="-743.6" rx="3.6" ry="3.6"/>
</g>
<!-- p2 -->
<g id="node4" class="node">
<title>p2</title>
<ellipse fill="none" stroke="black" cx="388.25" cy="-671" rx="45.49" ry="18"/>
<text text-anchor="middle" x="388.25" y="-667.3" font-family="Times,serif" font-size="14.00">getSRA</text>
</g>
<!-- p1&#45;&gt;p2 -->
<g id="edge2" class="edge">
<title>p1&#45;&gt;p2</title>
<path fill="none" stroke="black" d="M388.25,-739.92C388.25,-733.25 388.25,-715.3 388.25,-699.53"/>
<polygon fill="black" stroke="black" points="391.75,-699.13 388.25,-689.13 384.75,-699.13 391.75,-699.13"/>
<text text-anchor="middle" x="412.25" y="-710.8" font-family="Times,serif" font-size="14.00">accIDs</text>
</g>
<!-- p3 -->
<g id="node5" class="node">
<title>p3</title>
<ellipse fill="none" stroke="black" cx="388.25" cy="-598.5" rx="3.5" ry="3.5"/>
<text text-anchor="middle" x="353.25" y="-605.8" font-family="Times,serif" font-size="14.00">splitText</text>
</g>
<!-- p2&#45;&gt;p3 -->
<g id="edge3" class="edge">
<title>p2&#45;&gt;p3</title>
<path fill="none" stroke="black" d="M388.25,-652.93C388.25,-640.38 388.25,-623.59 388.25,-612.2"/>
<polygon fill="black" stroke="black" points="391.75,-612.16 388.25,-602.16 384.75,-612.16 391.75,-612.16"/>
<text text-anchor="middle" x="411.75" y="-623.8" font-family="Times,serif" font-size="14.00">sraIDs</text>
</g>
<!-- p4 -->
<g id="node6" class="node">
<title>p4</title>
<ellipse fill="none" stroke="black" cx="388.25" cy="-554.5" rx="3.5" ry="3.5"/>
<text text-anchor="middle" x="369.25" y="-561.8" font-family="Times,serif" font-size="14.00">map</text>
</g>
<!-- p3&#45;&gt;p4 -->
<g id="edge4" class="edge">
<title>p3&#45;&gt;p4</title>
<path fill="none" stroke="black" d="M388.25,-594.74C388.25,-589.47 388.25,-577.63 388.25,-568.32"/>
<polygon fill="black" stroke="black" points="391.75,-568.32 388.25,-558.32 384.75,-568.32 391.75,-568.32"/>
</g>
<!-- p5 -->
<g id="node7" class="node">
<title>p5</title>
<ellipse fill="none" stroke="black" cx="388.25" cy="-482" rx="61.99" ry="18"/>
<text text-anchor="middle" x="388.25" y="-478.3" font-family="Times,serif" font-size="14.00">fastqDump</text>
</g>
<!-- p4&#45;&gt;p5 -->
<g id="edge5" class="edge">
<title>p4&#45;&gt;p5</title>
<path fill="none" stroke="black" d="M388.25,-550.82C388.25,-544.16 388.25,-526.24 388.25,-510.49"/>
<polygon fill="black" stroke="black" points="391.75,-510.1 388.25,-500.1 384.75,-510.1 391.75,-510.1"/>
<text text-anchor="middle" x="432.25" y="-521.8" font-family="Times,serif" font-size="14.00">singleSRAId</text>
</g>
<!-- p6 -->
<g id="node8" class="node">
<title>p6</title>
<ellipse fill="none" stroke="black" cx="388.25" cy="-409.5" rx="3.5" ry="3.5"/>
<text text-anchor="middle" x="370.75" y="-416.8" font-family="Times,serif" font-size="14.00">into</text>
</g>
<!-- p5&#45;&gt;p6 -->
<g id="edge6" class="edge">
<title>p5&#45;&gt;p6</title>
<path fill="none" stroke="black" d="M388.25,-463.93C388.25,-451.38 388.25,-434.59 388.25,-423.2"/>
<polygon fill="black" stroke="black" points="391.75,-423.16 388.25,-413.16 384.75,-423.16 391.75,-423.16"/>
<text text-anchor="middle" x="408.25" y="-434.8" font-family="Times,serif" font-size="14.00">reads</text>
</g>
<!-- p8 -->
<g id="node9" class="node">
<title>p8</title>
<ellipse fill="none" stroke="black" cx="258.25" cy="-337" rx="42.49" ry="18"/>
<text text-anchor="middle" x="258.25" y="-333.3" font-family="Times,serif" font-size="14.00">fastQC</text>
</g>
<!-- p6&#45;&gt;p8 -->
<g id="edge7" class="edge">
<title>p6&#45;&gt;p8</title>
<path fill="none" stroke="black" d="M384.61,-408.62C371.23,-408.91 323.88,-408.35 293.25,-388 284.11,-381.93 276.64,-372.6 270.98,-363.63"/>
<polygon fill="black" stroke="black" points="273.98,-361.82 265.93,-354.92 267.92,-365.33 273.98,-361.82"/>
<text text-anchor="middle" x="338.75" y="-376.8" font-family="Times,serif" font-size="14.00">reads_fastqc</text>
</g>
<!-- p10 -->
<g id="node10" class="node">
<title>p10</title>
<ellipse fill="none" stroke="black" cx="388.25" cy="-337" rx="70.39" ry="18"/>
<text text-anchor="middle" x="388.25" y="-333.3" font-family="Times,serif" font-size="14.00">gunzipReads</text>
</g>
<!-- p6&#45;&gt;p10 -->
<g id="edge8" class="edge">
<title>p6&#45;&gt;p10</title>
<path fill="none" stroke="black" d="M388.25,-405.82C388.25,-399.16 388.25,-381.24 388.25,-365.49"/>
<polygon fill="black" stroke="black" points="391.75,-365.1 388.25,-355.1 384.75,-365.1 391.75,-365.1"/>
<text text-anchor="middle" x="435.75" y="-376.8" font-family="Times,serif" font-size="14.00">reads_gunzip</text>
</g>
<!-- p7 -->
<g id="node11" class="node">
<title>p7</title>
<ellipse fill="none" stroke="black" cx="555.25" cy="-337" rx="79.09" ry="18"/>
<text text-anchor="middle" x="555.25" y="-333.3" font-family="Times,serif" font-size="14.00">dashingSketch</text>
</g>
<!-- p6&#45;&gt;p7 -->
<g id="edge9" class="edge">
<title>p6&#45;&gt;p7</title>
<path fill="none" stroke="black" d="M391.83,-408.31C405.08,-407.49 452.29,-403.57 487.25,-388 502.36,-381.27 517.38,-370.74 529.43,-361.08"/>
<polygon fill="black" stroke="black" points="531.8,-363.66 537.28,-354.59 527.34,-358.27 531.8,-363.66"/>
<text text-anchor="middle" x="565.75" y="-376.8" font-family="Times,serif" font-size="14.00">reads_dashing</text>
</g>
<!-- p11 -->
<g id="node12" class="node">
<title>p11</title>
<ellipse fill="none" stroke="black" cx="388.25" cy="-264.5" rx="3.5" ry="3.5"/>
<text text-anchor="middle" x="370.75" y="-271.8" font-family="Times,serif" font-size="14.00">into</text>
</g>
<!-- p10&#45;&gt;p11 -->
<g id="edge10" class="edge">
<title>p10&#45;&gt;p11</title>
<path fill="none" stroke="black" d="M388.25,-318.93C388.25,-306.38 388.25,-289.59 388.25,-278.2"/>
<polygon fill="black" stroke="black" points="391.75,-278.16 388.25,-268.16 384.75,-278.16 391.75,-278.16"/>
<text text-anchor="middle" x="444.25" y="-289.8" font-family="Times,serif" font-size="14.00">reads_unzipped</text>
</g>
<!-- p12 -->
<g id="node13" class="node">
<title>p12</title>
<ellipse fill="none" stroke="black" cx="290.25" cy="-192" rx="59.29" ry="18"/>
<text text-anchor="middle" x="290.25" y="-188.3" font-family="Times,serif" font-size="14.00">mapReads</text>
</g>
<!-- p11&#45;&gt;p12 -->
<g id="edge11" class="edge">
<title>p11&#45;&gt;p12</title>
<path fill="none" stroke="black" d="M384.67,-263.68C372.36,-264.11 331.16,-263.84 308.25,-243 301.65,-237 297.46,-228.4 294.81,-220.02"/>
<polygon fill="black" stroke="black" points="298.15,-218.92 292.28,-210.09 291.36,-220.65 298.15,-218.92"/>
<text text-anchor="middle" x="376.75" y="-231.8" font-family="Times,serif" font-size="14.00">reads_unzippedMR</text>
</g>
<!-- p17 -->
<g id="node14" class="node">
<title>p17</title>
<ellipse fill="none" stroke="black" cx="478.25" cy="-192" rx="53.89" ry="18"/>
<text text-anchor="middle" x="478.25" y="-188.3" font-family="Times,serif" font-size="14.00">vgGiraffe</text>
</g>
<!-- p11&#45;&gt;p17 -->
<g id="edge12" class="edge">
<title>p11&#45;&gt;p17</title>
<path fill="none" stroke="black" d="M391.69,-263.19C401.67,-262.13 431.07,-257.84 449.25,-243 457.01,-236.66 463.13,-227.66 467.71,-219.03"/>
<polygon fill="black" stroke="black" points="470.89,-220.5 472.07,-209.97 464.58,-217.46 470.89,-220.5"/>
<text text-anchor="middle" x="563.75" y="-231.8" font-family="Times,serif" font-size="14.00">reads_unzippedPGRGvarcall</text>
</g>
<!-- p13 -->
<g id="node15" class="node">
<title>p13</title>
<ellipse fill="none" stroke="black" cx="182.25" cy="-105" rx="3.5" ry="3.5"/>
<text text-anchor="middle" x="164.75" y="-112.3" font-family="Times,serif" font-size="14.00">into</text>
</g>
<!-- p12&#45;&gt;p13 -->
<g id="edge13" class="edge">
<title>p12&#45;&gt;p13</title>
<path fill="none" stroke="black" d="M269.93,-175.01C246.94,-156.92 210.39,-128.15 192.62,-114.17"/>
<polygon fill="black" stroke="black" points="194.75,-111.39 184.73,-107.96 190.42,-116.89 194.75,-111.39"/>
<text text-anchor="middle" x="272.25" y="-144.8" font-family="Times,serif" font-size="14.00">bamFile</text>
</g>
<!-- p18 -->
<g id="node19" class="node">
<title>p18</title>
<ellipse fill="none" stroke="black" cx="481.25" cy="-105" rx="40.09" ry="18"/>
<text text-anchor="middle" x="481.25" y="-101.3" font-family="Times,serif" font-size="14.00">vgCall</text>
</g>
<!-- p17&#45;&gt;p18 -->
<g id="edge17" class="edge">
<title>p17&#45;&gt;p18</title>
<path fill="none" stroke="black" d="M478.85,-173.8C479.26,-162.16 479.81,-146.55 480.28,-133.24"/>
<polygon fill="black" stroke="black" points="483.78,-133.29 480.64,-123.18 476.79,-133.05 483.78,-133.29"/>
<text text-anchor="middle" x="506.75" y="-144.8" font-family="Times,serif" font-size="14.00">gamfile</text>
</g>
<!-- p14 -->
<g id="node16" class="node">
<title>p14</title>
<ellipse fill="none" stroke="black" cx="55.25" cy="-18" rx="55.49" ry="18"/>
<text text-anchor="middle" x="55.25" y="-14.3" font-family="Times,serif" font-size="14.00">mapStats</text>
</g>
<!-- p13&#45;&gt;p14 -->
<g id="edge14" class="edge">
<title>p13&#45;&gt;p14</title>
<path fill="none" stroke="black" d="M178.76,-103.88C164.12,-103.2 106.9,-98.68 75.25,-69 68.75,-62.91 64.32,-54.43 61.31,-46.18"/>
<polygon fill="black" stroke="black" points="64.59,-44.94 58.32,-36.41 57.9,-46.99 64.59,-44.94"/>
<text text-anchor="middle" x="125.25" y="-57.8" font-family="Times,serif" font-size="14.00">bamFile_stats</text>
</g>
<!-- p15 -->
<g id="node17" class="node">
<title>p15</title>
<ellipse fill="none" stroke="black" cx="178.25" cy="-18" rx="48.19" ry="18"/>
<text text-anchor="middle" x="178.25" y="-14.3" font-family="Times,serif" font-size="14.00">mpileup</text>
</g>
<!-- p13&#45;&gt;p15 -->
<g id="edge15" class="edge">
<title>p13&#45;&gt;p15</title>
<path fill="none" stroke="black" d="M181.97,-101.46C181.36,-95.69 179.89,-81.18 179.25,-69 178.86,-61.66 178.62,-53.71 178.47,-46.35"/>
<polygon fill="black" stroke="black" points="181.96,-46.08 178.31,-36.13 174.97,-46.19 181.96,-46.08"/>
<text text-anchor="middle" x="240.75" y="-57.8" font-family="Times,serif" font-size="14.00">bamFile_mpileup</text>
</g>
<!-- p16 -->
<g id="node18" class="node">
<title>p16</title>
<ellipse fill="none" stroke="black" cx="324.25" cy="-18" rx="55.79" ry="18"/>
<text text-anchor="middle" x="324.25" y="-14.3" font-family="Times,serif" font-size="14.00">freebayes</text>
</g>
<!-- p13&#45;&gt;p16 -->
<g id="edge16" class="edge">
<title>p13&#45;&gt;p16</title>
<path fill="none" stroke="black" d="M185.69,-104C201.23,-103.81 265.7,-101.05 302.25,-69 309.21,-62.89 314.07,-54.15 317.41,-45.69"/>
<polygon fill="black" stroke="black" points="320.78,-46.65 320.67,-36.05 314.15,-44.4 320.78,-46.65"/>
<text text-anchor="middle" x="380.75" y="-57.8" font-family="Times,serif" font-size="14.00">bamFile_freebayes</text>
</g>
<!-- p19 -->
<g id="node20" class="node">
<title>p19</title>
<ellipse fill="none" stroke="black" cx="482.25" cy="-18" rx="42.49" ry="18"/>
<text text-anchor="middle" x="482.25" y="-14.3" font-family="Times,serif" font-size="14.00">segcov</text>
</g>
<!-- p18&#45;&gt;p19 -->
<g id="edge18" class="edge">
<title>p18&#45;&gt;p19</title>
<path fill="none" stroke="black" d="M481.45,-86.8C481.58,-75.16 481.77,-59.55 481.92,-46.24"/>
<polygon fill="black" stroke="black" points="485.43,-46.22 482.04,-36.18 478.43,-46.13 485.43,-46.22"/>
<text text-anchor="middle" x="517.25" y="-57.8" font-family="Times,serif" font-size="14.00">packtable</text>
</g>
</g>
</svg>
